<?xml version="1.0" standalone="no"?>
<!DOCTYPE svg PUBLIC "-//W3C//DTD SVG 20010904//EN"
 "http://www.w3.org/TR/2001/REC-SVG-20010904/DTD/svg10.dtd">
<svg version="1.0" xmlns="http://www.w3.org/2000/svg"
 width="775.000000pt" height="775.000000pt" viewBox="0 0 775.000000 775.000000"
 preserveAspectRatio="xMidYMid meet">
<metadata>
Created by potrace 1.14, written by Peter Selinger 2001-2017
</metadata>
<g transform="translate(0.000000,775.000000) scale(0.100000,-0.100000)"
fill="#000000" stroke="none">
<path d="M0 6168 l0 -1583 850 850 850 850 0 -1127 0 -1128 -852 -3 -853 -2
853 -3 852 -2 0 -623 0 -623 -139 -72 c-77 -39 -197 -92 -267 -116 -140 -49
-224 -99 -316 -190 -63 -62 -148 -160 -148 -170 0 -10 -126 -170 -190 -240
-31 -34 -65 -75 -78 -92 -30 -43 -125 -283 -168 -423 -32 -105 -44 -128 -139
-270 -118 -177 -173 -287 -218 -434 l-31 -102 -3 -333 -4 -332 3876 0 3875 0
0 3875 0 3875 -3875 0 -3875 0 0 -1582z m2590 80 c-75 -62 -167 -170 -204
-238 -32 -59 -81 -243 -96 -362 -5 -45 -10 -170 -10 -278 0 -194 0 -195 -40
-350 -58 -227 -55 -319 19 -490 74 -172 146 -274 235 -332 73 -47 120 -51 165
-13 l30 26 11 -43 c6 -24 18 -64 25 -90 l14 -48 -515 0 -514 0 0 1135 0 1135
471 0 471 0 -62 -52z m2970 -683 c-627 -627 -736 -732 -742 -715 -4 11 -12 78
-18 148 -13 154 -17 171 -69 295 -70 165 -72 181 -65 442 10 320 -9 409 -105
518 l-43 47 889 0 888 0 -735 -735z m740 -1560 c0 -1914 -2 -2265 -14 -2265
-9 0 -18 29 -30 98 -9 53 -20 120 -25 148 -12 64 -77 225 -122 300 -41 68
-173 194 -249 236 -30 18 -71 44 -90 60 -19 15 -40 28 -46 28 -11 0 -104 46
-137 67 -21 14 -141 63 -153 63 -7 0 -14 7 -18 15 -3 8 -12 15 -21 15 -8 0
-15 4 -15 9 0 8 -39 29 -135 72 -42 19 -200 69 -217 69 -10 0 -60 18 -111 39
-50 22 -108 42 -127 46 -59 12 -161 79 -213 141 -26 31 -64 90 -83 131 -32 65
-36 85 -41 176 -6 114 -5 118 77 242 51 78 146 269 159 320 5 22 13 72 16 110
10 105 30 191 64 280 40 102 51 166 51 289 l0 101 737 737 c406 406 739 738
740 738 2 0 3 -1019 3 -2265z m-3557 -7 c6 -24 11 -165 12 -333 0 -115 -12
-155 -84 -280 -65 -113 -136 -180 -251 -236 -52 -26 -115 -62 -140 -80 -94
-70 -148 -101 -250 -140 -58 -22 -151 -65 -207 -95 -56 -30 -105 -54 -108 -54
-3 0 -5 279 -5 620 l0 620 514 0 514 0 5 -22z m2310 -1175 c-7 -2 -19 -2 -25
0 -7 3 -2 5 12 5 14 0 19 -2 13 -5z m1077 -654 c0 -6 -4 -7 -10 -4 -5 3 -10
11 -10 16 0 6 5 7 10 4 6 -3 10 -11 10 -16z m-967 -116 c-7 -2 -19 -2 -25 0
-7 3 -2 5 12 5 14 0 19 -2 13 -5z m257 -293 c0 -5 -5 -10 -11 -10 -5 0 -7 5
-4 10 3 6 8 10 11 10 2 0 4 -4 4 -10z m68 -346 c-3 -14 -5 -12 -10 9 -3 19 -2
25 4 19 6 -6 8 -18 6 -28z m363 -825 c-5 -13 -10 -19 -10 -12 -1 15 10 45 15
40 3 -2 0 -15 -5 -28z"/>
</g>
</svg>
